<mxfile host="app.diagrams.net" agent="Mozilla/5.0 (Windows NT 10.0; Win64; x64) AppleWebKit/537.36 (KHTML, like Gecko) Chrome/131.0.0.0 Safari/537.36" version="25.0.1">
  <diagram name="Page-1" id="w8zcRAUPevMMCl17IS7H">
    <mxGraphModel dx="2074" dy="1106" grid="1" gridSize="10" guides="1" tooltips="1" connect="1" arrows="1" fold="1" page="1" pageScale="1" pageWidth="850" pageHeight="1100" math="0" shadow="0">
      <root>
        <mxCell id="0" />
        <mxCell id="1" parent="0" />
        <mxCell id="P8UGidtNNnWabzUyvyod-15" value="" style="edgeStyle=orthogonalEdgeStyle;rounded=0;orthogonalLoop=1;jettySize=auto;html=1;" edge="1" parent="1" source="P8UGidtNNnWabzUyvyod-1" target="P8UGidtNNnWabzUyvyod-14">
          <mxGeometry relative="1" as="geometry" />
        </mxCell>
        <mxCell id="P8UGidtNNnWabzUyvyod-1" value="split log file into 5M&amp;nbsp; sized files" style="rounded=0;whiteSpace=wrap;html=1;" vertex="1" parent="1">
          <mxGeometry x="360" y="530" width="280" height="60" as="geometry" />
        </mxCell>
        <mxCell id="P8UGidtNNnWabzUyvyod-3" style="edgeStyle=orthogonalEdgeStyle;rounded=0;orthogonalLoop=1;jettySize=auto;html=1;entryX=0.5;entryY=0;entryDx=0;entryDy=0;" edge="1" parent="1" source="P8UGidtNNnWabzUyvyod-2" target="P8UGidtNNnWabzUyvyod-1">
          <mxGeometry relative="1" as="geometry" />
        </mxCell>
        <mxCell id="P8UGidtNNnWabzUyvyod-11" style="edgeStyle=orthogonalEdgeStyle;rounded=0;orthogonalLoop=1;jettySize=auto;html=1;" edge="1" parent="1" source="P8UGidtNNnWabzUyvyod-2" target="P8UGidtNNnWabzUyvyod-9">
          <mxGeometry relative="1" as="geometry" />
        </mxCell>
        <mxCell id="P8UGidtNNnWabzUyvyod-2" value="download full console output" style="rounded=0;whiteSpace=wrap;html=1;" vertex="1" parent="1">
          <mxGeometry x="360" y="380" width="280" height="60" as="geometry" />
        </mxCell>
        <mxCell id="P8UGidtNNnWabzUyvyod-4" value="minitor jenkins jobs status" style="rounded=0;whiteSpace=wrap;html=1;" vertex="1" parent="1">
          <mxGeometry x="360" y="90" width="280" height="60" as="geometry" />
        </mxCell>
        <mxCell id="P8UGidtNNnWabzUyvyod-6" style="edgeStyle=orthogonalEdgeStyle;rounded=0;orthogonalLoop=1;jettySize=auto;html=1;" edge="1" parent="1" source="P8UGidtNNnWabzUyvyod-5" target="P8UGidtNNnWabzUyvyod-2">
          <mxGeometry relative="1" as="geometry" />
        </mxCell>
        <mxCell id="P8UGidtNNnWabzUyvyod-8" value="Yes" style="edgeLabel;html=1;align=center;verticalAlign=middle;resizable=0;points=[];" vertex="1" connectable="0" parent="P8UGidtNNnWabzUyvyod-6">
          <mxGeometry x="0.2857" y="-2" relative="1" as="geometry">
            <mxPoint as="offset" />
          </mxGeometry>
        </mxCell>
        <mxCell id="P8UGidtNNnWabzUyvyod-5" value="&lt;br&gt;&lt;span style=&quot;color: rgb(0, 0, 0); font-family: Helvetica; font-size: 12px; font-style: normal; font-variant-ligatures: normal; font-variant-caps: normal; font-weight: 400; letter-spacing: normal; orphans: 2; text-align: center; text-indent: 0px; text-transform: none; widows: 2; word-spacing: 0px; -webkit-text-stroke-width: 0px; white-space: normal; background-color: rgb(251, 251, 251); text-decoration-thickness: initial; text-decoration-style: initial; text-decoration-color: initial; display: inline !important; float: none;&quot;&gt;failed job&lt;/span&gt;&lt;div&gt;&lt;br/&gt;&lt;/div&gt;" style="strokeWidth=2;html=1;shape=mxgraph.flowchart.decision;whiteSpace=wrap;" vertex="1" parent="1">
          <mxGeometry x="392.5" y="210" width="215" height="100" as="geometry" />
        </mxCell>
        <mxCell id="P8UGidtNNnWabzUyvyod-7" style="edgeStyle=orthogonalEdgeStyle;rounded=0;orthogonalLoop=1;jettySize=auto;html=1;entryX=0.5;entryY=0;entryDx=0;entryDy=0;entryPerimeter=0;" edge="1" parent="1" source="P8UGidtNNnWabzUyvyod-4" target="P8UGidtNNnWabzUyvyod-5">
          <mxGeometry relative="1" as="geometry" />
        </mxCell>
        <mxCell id="P8UGidtNNnWabzUyvyod-9" value="huge console log file" style="strokeWidth=2;html=1;shape=mxgraph.flowchart.document2;whiteSpace=wrap;size=0.25;" vertex="1" parent="1">
          <mxGeometry x="740" y="380" width="100" height="60" as="geometry" />
        </mxCell>
        <mxCell id="P8UGidtNNnWabzUyvyod-10" value="splited log files" style="strokeWidth=2;html=1;shape=mxgraph.flowchart.multi-document;whiteSpace=wrap;" vertex="1" parent="1">
          <mxGeometry x="740" y="530" width="130" height="60" as="geometry" />
        </mxCell>
        <mxCell id="P8UGidtNNnWabzUyvyod-12" style="edgeStyle=orthogonalEdgeStyle;rounded=0;orthogonalLoop=1;jettySize=auto;html=1;entryX=0.062;entryY=0.467;entryDx=0;entryDy=0;entryPerimeter=0;" edge="1" parent="1" source="P8UGidtNNnWabzUyvyod-1" target="P8UGidtNNnWabzUyvyod-10">
          <mxGeometry relative="1" as="geometry" />
        </mxCell>
        <mxCell id="P8UGidtNNnWabzUyvyod-20" value="" style="edgeStyle=orthogonalEdgeStyle;rounded=0;orthogonalLoop=1;jettySize=auto;html=1;" edge="1" parent="1" source="P8UGidtNNnWabzUyvyod-14" target="P8UGidtNNnWabzUyvyod-19">
          <mxGeometry relative="1" as="geometry" />
        </mxCell>
        <mxCell id="P8UGidtNNnWabzUyvyod-14" value="vector lize splited log files to vector database" style="whiteSpace=wrap;html=1;rounded=0;" vertex="1" parent="1">
          <mxGeometry x="360" y="670" width="280" height="60" as="geometry" />
        </mxCell>
        <mxCell id="P8UGidtNNnWabzUyvyod-16" value="vector DB" style="strokeWidth=2;html=1;shape=mxgraph.flowchart.database;whiteSpace=wrap;" vertex="1" parent="1">
          <mxGeometry x="750" y="670" width="100" height="60" as="geometry" />
        </mxCell>
        <mxCell id="P8UGidtNNnWabzUyvyod-17" style="edgeStyle=orthogonalEdgeStyle;rounded=0;orthogonalLoop=1;jettySize=auto;html=1;exitX=1;exitY=0.5;exitDx=0;exitDy=0;entryX=0;entryY=0.5;entryDx=0;entryDy=0;entryPerimeter=0;" edge="1" parent="1" source="P8UGidtNNnWabzUyvyod-14" target="P8UGidtNNnWabzUyvyod-16">
          <mxGeometry relative="1" as="geometry" />
        </mxCell>
        <mxCell id="P8UGidtNNnWabzUyvyod-22" value="" style="edgeStyle=orthogonalEdgeStyle;rounded=0;orthogonalLoop=1;jettySize=auto;html=1;" edge="1" parent="1" source="P8UGidtNNnWabzUyvyod-19" target="P8UGidtNNnWabzUyvyod-21">
          <mxGeometry relative="1" as="geometry" />
        </mxCell>
        <mxCell id="P8UGidtNNnWabzUyvyod-19" value="retrieve job parameters" style="whiteSpace=wrap;html=1;rounded=0;" vertex="1" parent="1">
          <mxGeometry x="440" y="810" width="120" height="60" as="geometry" />
        </mxCell>
        <mxCell id="P8UGidtNNnWabzUyvyod-24" value="" style="edgeStyle=orthogonalEdgeStyle;rounded=0;orthogonalLoop=1;jettySize=auto;html=1;" edge="1" parent="1" source="P8UGidtNNnWabzUyvyod-21" target="P8UGidtNNnWabzUyvyod-23">
          <mxGeometry relative="1" as="geometry" />
        </mxCell>
        <mxCell id="P8UGidtNNnWabzUyvyod-21" value="request AI model to analyze the log and find out what is the root cause of failure" style="whiteSpace=wrap;html=1;rounded=0;" vertex="1" parent="1">
          <mxGeometry x="360" y="920" width="280" height="60" as="geometry" />
        </mxCell>
        <mxCell id="P8UGidtNNnWabzUyvyod-23" value="Request AI to give possible solutions" style="whiteSpace=wrap;html=1;rounded=0;" vertex="1" parent="1">
          <mxGeometry x="360" y="1060" width="280" height="60" as="geometry" />
        </mxCell>
      </root>
    </mxGraphModel>
  </diagram>
</mxfile>
